<svg class="typst-doc" viewBox="0 0 300 240" width="300pt" height="240pt" xmlns="http://www.w3.org/2000/svg" xmlns:xlink="http://www.w3.org/1999/xlink" xmlns:h5="http://www.w3.org/1999/xhtml">
    <path class="typst-shape" fill="#ffffff" fill-rule="nonzero" d="M 0 0v 240 h 300 v -240 Z "/>
    <g>
        <g class="typst-group">
            <g>
                <g class="typst-group">
                    <g>
                        <g class="typst-group">
                            <g>
                                <path class="typst-shape" fill="none" stroke="#ff851b" stroke-width="1" stroke-linecap="butt" stroke-linejoin="miter" stroke-miterlimit="4" transform="matrix(1 0 0 1 231.13385826771653 28.346456692913385)" d="M 0 0v 15.6523 h 1.5433071 "/>
                                <path class="typst-shape" fill="#ff851b" fill-rule="nonzero" transform="matrix(1 0 0 1 229.63385826771653 26.846456692913385)" d="M 0 0m 0 1.5 c 0 -0.827676 0.672324 -1.5 1.5 -1.5 c 0.82767606 0 1.5 0.672324 1.5 1.5 c 0 0.82767606 -0.67232394 1.5 -1.5 1.5 c -0.827676 0 -1.5 -0.67232394 -1.5 -1.5 "/>
                                <g class="typst-group" transform="matrix(1 0 0 1 0 28.346456692913385)">
                                    <g>
                                        <g class="typst-group" transform="matrix(1 0 0 1 3.543307086614173 0)">
                                            <g>
                                                <g class="typst-group">
                                                    <g>
                                                        <g class="typst-group">
                                                            <g>
                                                                <g class="typst-text" transform="matrix(1 0 0 -1 0 6.1523)">
                                                                    <use xlink:href="#g8D5976ED882A29C5D983AFE9B03E56C6" x="0" y="0" fill="#000000" fill-rule="nonzero"/>
                                                                </g>
                                                                <a transform="matrix(1 0 0 1 0 -3.0387500000000003)">
                                                                    <rect width="2.87045" height="12.229800000000001" fill="transparent" stroke="none"/>
                                                                </a>
                                                            </g>
                                                        </g>
                                                        <g class="typst-text" transform="matrix(1 0 0 -1 3.3379499999999998 6.1523)">
                                                            <use xlink:href="#g10BB68AB2280318B71D1F6C6C25A6C4A" x="0" y="0" fill="#000000" fill-rule="nonzero"/>
                                                            <use xlink:href="#g8CFD51E567FF054FC7A654F845E8AC44" x="7.84465" y="0" fill="#000000" fill-rule="nonzero"/>
                                                            <use xlink:href="#g804569D07B0B7C8F1DF0F2850468A3BF" x="12.1176" y="0" fill="#000000" fill-rule="nonzero"/>
                                                            <use xlink:href="#gE8F9BB29BAAD27D4E01FADCB8184FEA" x="15.5958" y="0" fill="#000000" fill-rule="nonzero"/>
                                                            <use xlink:href="#g4F146376341C648F8E9D53A390A9511A" x="20.2708" y="0" fill="#000000" fill-rule="nonzero"/>
                                                            <use xlink:href="#gBC75E81359F36B16BD01FF13E9627C25" x="22.804650000000002" y="0" fill="#000000" fill-rule="nonzero"/>
                                                            <use xlink:href="#gBC75E81359F36B16BD01FF13E9627C25" x="30.209850000000003" y="0" fill="#000000" fill-rule="nonzero"/>
                                                            <use xlink:href="#g96A03CDC5401B12C9A91B650126D0019" x="35.277550000000005" y="0" fill="#000000" fill-rule="nonzero"/>
                                                            <use xlink:href="#g29FCFA910F47C920FBA6BD920C95F658" x="39.98995000000001" y="0" fill="#000000" fill-rule="nonzero"/>
                                                            <use xlink:href="#gD394B34944217B5156DF3950690408A8" x="42.94455000000001" y="0" fill="#000000" fill-rule="nonzero"/>
                                                            <use xlink:href="#gC9A1D945EF2AE8ADFBD49616F584AB97" x="47.12400000000001" y="0" fill="#000000" fill-rule="nonzero"/>
                                                        </g>
                                                        <g class="typst-text" transform="matrix(1 0 0 -1 0 18.3821)">
                                                            <use xlink:href="#gB2EADCBC95F85AD713A4F6A4B918068B" x="0" y="0" fill="#000000" fill-rule="nonzero"/>
                                                            <use xlink:href="#g8CFD51E567FF054FC7A654F845E8AC44" x="4.0018" y="0" fill="#000000" fill-rule="nonzero"/>
                                                            <use xlink:href="#gBC75E81359F36B16BD01FF13E9627C25" x="8.274750000000001" y="0" fill="#000000" fill-rule="nonzero"/>
                                                            <use xlink:href="#gBC75E81359F36B16BD01FF13E9627C25" x="13.342450000000001" y="0" fill="#000000" fill-rule="nonzero"/>
                                                            <use xlink:href="#g96A03CDC5401B12C9A91B650126D0019" x="18.41015" y="0" fill="#000000" fill-rule="nonzero"/>
                                                            <use xlink:href="#g29FCFA910F47C920FBA6BD920C95F658" x="23.122550000000004" y="0" fill="#000000" fill-rule="nonzero"/>
                                                            <use xlink:href="#gB2EADCBC95F85AD713A4F6A4B918068B" x="28.41465" y="0" fill="#000000" fill-rule="nonzero"/>
                                                            <use xlink:href="#g804569D07B0B7C8F1DF0F2850468A3BF" x="32.416450000000005" y="0" fill="#000000" fill-rule="nonzero"/>
                                                            <use xlink:href="#gD394B34944217B5156DF3950690408A8" x="35.81985" y="0" fill="#000000" fill-rule="nonzero"/>
                                                            <use xlink:href="#g8CFD51E567FF054FC7A654F845E8AC44" x="39.999300000000005" y="0" fill="#000000" fill-rule="nonzero"/>
                                                            <use xlink:href="#g29FCFA910F47C920FBA6BD920C95F658" x="44.27225000000001" y="0" fill="#000000" fill-rule="nonzero"/>
                                                            <use xlink:href="#gD394B34944217B5156DF3950690408A8" x="47.226850000000006" y="0" fill="#000000" fill-rule="nonzero"/>
                                                        </g>
                                                        <g class="typst-text" transform="matrix(1 0 0 -1 0 30.611900000000006)">
                                                            <use xlink:href="#gBC75E81359F36B16BD01FF13E9627C25" x="0" y="0" fill="#000000" fill-rule="nonzero"/>
                                                            <use xlink:href="#gD394B34944217B5156DF3950690408A8" x="5.0677" y="0" fill="#000000" fill-rule="nonzero"/>
                                                            <use xlink:href="#gBA0F195FF5E0296563480126B0D23226" x="9.181700000000001" y="0" fill="#000000" fill-rule="nonzero"/>
                                                            <use xlink:href="#gFA33307A4D1BDDD05148C83B0E06AA2" x="18.50365" y="0" fill="#000000" fill-rule="nonzero"/>
                                                            <use xlink:href="#g8CFD51E567FF054FC7A654F845E8AC44" x="23.3563" y="0" fill="#000000" fill-rule="nonzero"/>
                                                            <use xlink:href="#gE8F9BB29BAAD27D4E01FADCB8184FEA" x="27.629250000000003" y="0" fill="#000000" fill-rule="nonzero"/>
                                                            <use xlink:href="#gD394B34944217B5156DF3950690408A8" x="32.30425" y="0" fill="#000000" fill-rule="nonzero"/>
                                                            <use xlink:href="#gC9A1D945EF2AE8ADFBD49616F584AB97" x="36.483700000000006" y="0" fill="#000000" fill-rule="nonzero"/>
                                                            <use xlink:href="#g4F769CB82E885CD5A6D63CB163D6C3CF" x="40.13020000000001" y="0" fill="#000000" fill-rule="nonzero"/>
                                                            <use xlink:href="#g96A03CDC5401B12C9A91B650126D0019" x="44.52470000000001" y="0" fill="#000000" fill-rule="nonzero"/>
                                                            <use xlink:href="#gBC75E81359F36B16BD01FF13E9627C25" x="49.23710000000001" y="0" fill="#000000" fill-rule="nonzero"/>
                                                            <use xlink:href="#gD394B34944217B5156DF3950690408A8" x="54.304800000000014" y="0" fill="#000000" fill-rule="nonzero"/>
                                                        </g>
                                                        <g class="typst-text" transform="matrix(1 0 0 -1 0 42.8417)">
                                                            <use xlink:href="#gBC75E81359F36B16BD01FF13E9627C25" x="0" y="0" fill="#000000" fill-rule="nonzero"/>
                                                            <use xlink:href="#gD394B34944217B5156DF3950690408A8" x="5.0677" y="0" fill="#000000" fill-rule="nonzero"/>
                                                            <use xlink:href="#gD394B34944217B5156DF3950690408A8" x="9.3126" y="0" fill="#000000" fill-rule="nonzero"/>
                                                            <use xlink:href="#g59A4207E83E2A86B1EC43B3839B73659" x="13.557500000000001" y="0" fill="#000000" fill-rule="nonzero"/>
                                                            <use xlink:href="#gC9A1D945EF2AE8ADFBD49616F584AB97" x="18.288600000000002" y="0" fill="#000000" fill-rule="nonzero"/>
                                                            <use xlink:href="#g29FCFA910F47C920FBA6BD920C95F658" x="24.2726" y="0" fill="#000000" fill-rule="nonzero"/>
                                                            <use xlink:href="#g96A03CDC5401B12C9A91B650126D0019" x="27.2272" y="0" fill="#000000" fill-rule="nonzero"/>
                                                            <use xlink:href="#g51EE1127E7F690A7664BEF6E88406EEA" x="34.2771" y="0" fill="#000000" fill-rule="nonzero"/>
                                                            <use xlink:href="#gC9A1D945EF2AE8ADFBD49616F584AB97" x="39.241949999999996" y="0" fill="#000000" fill-rule="nonzero"/>
                                                            <use xlink:href="#gD394B34944217B5156DF3950690408A8" x="42.88845" y="0" fill="#000000" fill-rule="nonzero"/>
                                                        </g>
                                                        <g class="typst-group">
                                                            <g>
                                                                <g class="typst-text" transform="matrix(1 0 0 -1 0 53.74978984375)">
                                                                    <use xlink:href="#g1F7E59A3E3BE48B6BB978A7EB36CDA9E" x="0" y="0" fill="#4b69c6" fill-rule="nonzero"/>
                                                                </g>
                                                                <g class="typst-text" transform="matrix(1 0 0 -1 3.8278388671875003 53.74978984375)">
                                                                    <use xlink:href="#gF3951130C8972E46AF799D9944F0A664" x="0" y="0" fill="#4b69c6" fill-rule="nonzero"/>
                                                                    <use xlink:href="#g31A29DE513985C5174636F1AC7ECB92" x="3.8278388671875003" y="0" fill="#4b69c6" fill-rule="nonzero"/>
                                                                    <use xlink:href="#g1F2EB848F5A57D4461F31EC7E592F90D" x="7.655677734375001" y="0" fill="#4b69c6" fill-rule="nonzero"/>
                                                                    <use xlink:href="#gFCE30EC6E8DFC40C19CEE443D54719D4" x="11.483516601562501" y="0" fill="#4b69c6" fill-rule="nonzero"/>
                                                                    <use xlink:href="#g883E66DA58D1D2D129C9971DB763AC93" x="15.311355468750001" y="0" fill="#4b69c6" fill-rule="nonzero"/>
                                                                    <use xlink:href="#g3C085F341DE6A23F9852B0532C3F8C31" x="19.139194335937503" y="0" fill="#4b69c6" fill-rule="nonzero"/>
                                                                    <use xlink:href="#gFCE30EC6E8DFC40C19CEE443D54719D4" x="22.967033203125006" y="0" fill="#4b69c6" fill-rule="nonzero"/>
                                                                    <use xlink:href="#g31A29DE513985C5174636F1AC7ECB92" x="26.794872070312508" y="0" fill="#4b69c6" fill-rule="nonzero"/>
                                                                    <use xlink:href="#g8FB2FE993C6D052215D46B3FAE5F2FA1" x="30.62271093750001" y="0" fill="#4b69c6" fill-rule="nonzero"/>
                                                                </g>
                                                                <g class="typst-text" transform="matrix(1 0 0 -1 38.278388671875 53.74978984375)">
                                                                    <use xlink:href="#g89D0D5708DF870D944F9C8E188E2207" x="0" y="0" fill="#000000" fill-rule="nonzero"/>
                                                                    <use xlink:href="#gE98CA14DC19F2C9FD2D725DC424C5F85" x="3.8278388671875003" y="0" fill="#000000" fill-rule="nonzero"/>
                                                                </g>
                                                                <g class="typst-text" transform="matrix(1 0 0 -1 45.93406640625 53.74978984375)"/>
                                                            </g>
                                                        </g>
                                                        <g class="typst-text" transform="matrix(1 0 0 -1 0 65.97958984375)">
                                                            <use xlink:href="#g69DAF57666B4EFE34CDAB7CF8341297D" x="0" y="0" fill="#000000" fill-rule="nonzero"/>
                                                            <use xlink:href="#g8CFD51E567FF054FC7A654F845E8AC44" x="7.3865" y="0" fill="#000000" fill-rule="nonzero"/>
                                                            <use xlink:href="#gBC75E81359F36B16BD01FF13E9627C25" x="11.65945" y="0" fill="#000000" fill-rule="nonzero"/>
                                                            <use xlink:href="#g51EE1127E7F690A7664BEF6E88406EEA" x="16.72715" y="0" fill="#000000" fill-rule="nonzero"/>
                                                            <use xlink:href="#g8CFD51E567FF054FC7A654F845E8AC44" x="21.692" y="0" fill="#000000" fill-rule="nonzero"/>
                                                            <use xlink:href="#g69CCD6C5BF9ECE183D8F9F3421F27DFB" x="25.96495" y="0" fill="#000000" fill-rule="nonzero"/>
                                                            <use xlink:href="#g69CCD6C5BF9ECE183D8F9F3421F27DFB" x="28.43335" y="0" fill="#000000" fill-rule="nonzero"/>
                                                            <use xlink:href="#gA577C6351A2823D1A7889B5D42B1A25B" x="30.90175" y="0" fill="#000000" fill-rule="nonzero"/>
                                                            <use xlink:href="#gAD5AD175F969CC9B75177DBBCD703C86" x="35.165350000000004" y="0" fill="#000000" fill-rule="nonzero"/>
                                                        </g>
                                                    </g>
                                                </g>
                                            </g>
                                        </g>
                                    </g>
                                </g>
                                <g class="typst-group" transform="matrix(1 0 0 1 229.13385826771653 28.346456692913385)">
                                    <g>
                                        <g class="typst-group" transform="matrix(1 0 0 1 3.543307086614173 0)">
                                            <g>
                                                <g class="typst-group">
                                                    <g>
                                                        <g class="typst-group">
                                                            <g>
                                                                <g class="typst-text" transform="matrix(1 0 0 -1 0 6.1523)">
                                                                    <use xlink:href="#gFA921D05D86A73CF9CCE504440EB0B98" x="0" y="0" fill="#000000" fill-rule="nonzero"/>
                                                                </g>
                                                                <a transform="matrix(1 0 0 1 0 -3.0387500000000003)">
                                                                    <rect width="2.87045" height="12.229800000000001" fill="transparent" stroke="none"/>
                                                                </a>
                                                            </g>
                                                        </g>
                                                        <g class="typst-text" transform="matrix(1 0 0 -1 3.3379499999999998 6.1523)">
                                                            <use xlink:href="#g5F78150F331D865695D504ECCEC11027" x="0" y="0" fill="#000000" fill-rule="nonzero"/>
                                                            <use xlink:href="#gC9A1D945EF2AE8ADFBD49616F584AB97" x="8.835749999999999" y="0" fill="#000000" fill-rule="nonzero"/>
                                                            <use xlink:href="#gFA33307A4D1BDDD05148C83B0E06AA2" x="12.482249999999999" y="0" fill="#000000" fill-rule="nonzero"/>
                                                            <use xlink:href="#g4F146376341C648F8E9D53A390A9511A" x="17.334899999999998" y="0" fill="#000000" fill-rule="nonzero"/>
                                                            <use xlink:href="#g69CCD6C5BF9ECE183D8F9F3421F27DFB" x="19.86875" y="0" fill="#000000" fill-rule="nonzero"/>
                                                            <use xlink:href="#g69CCD6C5BF9ECE183D8F9F3421F27DFB" x="22.337149999999998" y="0" fill="#000000" fill-rule="nonzero"/>
                                                            <use xlink:href="#gD394B34944217B5156DF3950690408A8" x="24.805549999999997" y="0" fill="#000000" fill-rule="nonzero"/>
                                                            <use xlink:href="#g59A4207E83E2A86B1EC43B3839B73659" x="29.050449999999998" y="0" fill="#000000" fill-rule="nonzero"/>
                                                            <use xlink:href="#gBC75E81359F36B16BD01FF13E9627C25" x="36.119049999999994" y="0" fill="#000000" fill-rule="nonzero"/>
                                                            <use xlink:href="#g96A03CDC5401B12C9A91B650126D0019" x="41.186749999999996" y="0" fill="#000000" fill-rule="nonzero"/>
                                                            <use xlink:href="#g29FCFA910F47C920FBA6BD920C95F658" x="45.89915" y="0" fill="#000000" fill-rule="nonzero"/>
                                                            <use xlink:href="#gD394B34944217B5156DF3950690408A8" x="48.85375" y="0" fill="#000000" fill-rule="nonzero"/>
                                                            <use xlink:href="#gAD5AD175F969CC9B75177DBBCD703C86" x="52.9397" y="0" fill="#000000" fill-rule="nonzero"/>
                                                        </g>
                                                    </g>
                                                </g>
                                            </g>
                                        </g>
                                    </g>
                                </g>
                                <g class="typst-group" transform="matrix(1 0 0 1 229.13385826771653 39.99875669291338)">
                                    <g>
                                        <g class="typst-group" transform="matrix(1 0 0 1 3.543307086614173 0)">
                                            <g>
                                                <path class="typst-shape" fill="none" stroke="#ff851b" stroke-width="1" stroke-linecap="butt" stroke-linejoin="miter" stroke-miterlimit="4" d="M 0 0m 1.7 0 h 60.379528 c 0.9388809 0 1.699997 0.7611159 1.699997 1.7 v 49.4417 c 0 0.93888474 -0.761116 1.7000008 -1.699997 1.7000008 h -60.379528 c -0.93888414 0 -1.7 -0.761116 -1.7 -1.7000008 v -49.4417 c 0 -0.93888414 0.7611159 -1.7 1.7 -1.7 "/>
                                                <g class="typst-group" transform="matrix(1 0 0 1 5 5)">
                                                    <g>
                                                        <g class="typst-group">
                                                            <g>
                                                                <g class="typst-text" transform="matrix(1 0 0 -1 0 6.1523)">
                                                                    <use xlink:href="#gFED21A07E9D402157189DBC16E39E7A7" x="0" y="0" fill="#000000" fill-rule="nonzero"/>
                                                                </g>
                                                                <a transform="matrix(1 0 0 1 0 -3.0387500000000003)">
                                                                    <rect width="2.87045" height="12.229800000000001" fill="transparent" stroke="none"/>
                                                                </a>
                                                            </g>
                                                        </g>
                                                        <g class="typst-text" transform="matrix(1 0 0 -1 3.3379499999999998 6.1523)">
                                                            <use xlink:href="#g5F78150F331D865695D504ECCEC11027" x="0" y="0" fill="#000000" fill-rule="nonzero"/>
                                                            <use xlink:href="#gC9A1D945EF2AE8ADFBD49616F584AB97" x="8.835749999999999" y="0" fill="#000000" fill-rule="nonzero"/>
                                                            <use xlink:href="#gFA33307A4D1BDDD05148C83B0E06AA2" x="12.482249999999999" y="0" fill="#000000" fill-rule="nonzero"/>
                                                            <use xlink:href="#g4F146376341C648F8E9D53A390A9511A" x="17.334899999999998" y="0" fill="#000000" fill-rule="nonzero"/>
                                                            <use xlink:href="#g69CCD6C5BF9ECE183D8F9F3421F27DFB" x="19.86875" y="0" fill="#000000" fill-rule="nonzero"/>
                                                            <use xlink:href="#g69CCD6C5BF9ECE183D8F9F3421F27DFB" x="22.337149999999998" y="0" fill="#000000" fill-rule="nonzero"/>
                                                            <use xlink:href="#gD394B34944217B5156DF3950690408A8" x="24.805549999999997" y="0" fill="#000000" fill-rule="nonzero"/>
                                                            <use xlink:href="#g59A4207E83E2A86B1EC43B3839B73659" x="29.050449999999998" y="0" fill="#000000" fill-rule="nonzero"/>
                                                        </g>
                                                        <g class="typst-text" transform="matrix(1 0 0 -1 0 18.3821)">
                                                            <use xlink:href="#gBC75E81359F36B16BD01FF13E9627C25" x="0" y="0" fill="#000000" fill-rule="nonzero"/>
                                                            <use xlink:href="#g96A03CDC5401B12C9A91B650126D0019" x="5.0677" y="0" fill="#000000" fill-rule="nonzero"/>
                                                            <use xlink:href="#g29FCFA910F47C920FBA6BD920C95F658" x="9.780100000000001" y="0" fill="#000000" fill-rule="nonzero"/>
                                                            <use xlink:href="#gD394B34944217B5156DF3950690408A8" x="12.734700000000002" y="0" fill="#000000" fill-rule="nonzero"/>
                                                            <use xlink:href="#gBA0F195FF5E0296563480126B0D23226" x="19.25165" y="0" fill="#000000" fill-rule="nonzero"/>
                                                            <use xlink:href="#g4F146376341C648F8E9D53A390A9511A" x="26.2361" y="0" fill="#000000" fill-rule="nonzero"/>
                                                            <use xlink:href="#g29FCFA910F47C920FBA6BD920C95F658" x="28.76995" y="0" fill="#000000" fill-rule="nonzero"/>
                                                            <use xlink:href="#gB24794641EE6D7122DF693624205515A" x="31.72455" y="0" fill="#000000" fill-rule="nonzero"/>
                                                        </g>
                                                        <g class="typst-text" transform="matrix(1 0 0 -1 0 30.611900000000006)">
                                                            <use xlink:href="#g69CCD6C5BF9ECE183D8F9F3421F27DFB" x="0" y="0" fill="#000000" fill-rule="nonzero"/>
                                                            <use xlink:href="#g4F146376341C648F8E9D53A390A9511A" x="2.4684" y="0" fill="#000000" fill-rule="nonzero"/>
                                                            <use xlink:href="#gBC75E81359F36B16BD01FF13E9627C25" x="5.00225" y="0" fill="#000000" fill-rule="nonzero"/>
                                                            <use xlink:href="#gA52BB5B435493A69BF39D5AB2C43B38E" x="10.06995" y="0" fill="#000000" fill-rule="nonzero"/>
                                                            <use xlink:href="#gB2EADCBC95F85AD713A4F6A4B918068B" x="17.19465" y="0" fill="#000000" fill-rule="nonzero"/>
                                                            <use xlink:href="#g804569D07B0B7C8F1DF0F2850468A3BF" x="21.19645" y="0" fill="#000000" fill-rule="nonzero"/>
                                                            <use xlink:href="#g96A03CDC5401B12C9A91B650126D0019" x="24.59985" y="0" fill="#000000" fill-rule="nonzero"/>
                                                            <use xlink:href="#gC9A1D945EF2AE8ADFBD49616F584AB97" x="29.31225" y="0" fill="#000000" fill-rule="nonzero"/>
                                                            <use xlink:href="#gC9A1D945EF2AE8ADFBD49616F584AB97" x="32.95875" y="0" fill="#000000" fill-rule="nonzero"/>
                                                            <use xlink:href="#g4F146376341C648F8E9D53A390A9511A" x="36.605250000000005" y="0" fill="#000000" fill-rule="nonzero"/>
                                                            <use xlink:href="#gBC75E81359F36B16BD01FF13E9627C25" x="39.139100000000006" y="0" fill="#000000" fill-rule="nonzero"/>
                                                            <use xlink:href="#gE8F9BB29BAAD27D4E01FADCB8184FEA" x="44.20680000000001" y="0" fill="#000000" fill-rule="nonzero"/>
                                                        </g>
                                                        <g class="typst-text" transform="matrix(1 0 0 -1 0 42.8417)">
                                                            <use xlink:href="#gFA33307A4D1BDDD05148C83B0E06AA2" x="0" y="0" fill="#000000" fill-rule="nonzero"/>
                                                            <use xlink:href="#g8CFD51E567FF054FC7A654F845E8AC44" x="4.852650000000001" y="0" fill="#000000" fill-rule="nonzero"/>
                                                            <use xlink:href="#gE8F9BB29BAAD27D4E01FADCB8184FEA" x="9.125600000000002" y="0" fill="#000000" fill-rule="nonzero"/>
                                                            <use xlink:href="#gD394B34944217B5156DF3950690408A8" x="13.800600000000003" y="0" fill="#000000" fill-rule="nonzero"/>
                                                            <use xlink:href="#gBA094B6F4FCC207FB090B0275BC8E46F" x="20.31755" y="0" fill="#000000" fill-rule="nonzero"/>
                                                            <use xlink:href="#g96A03CDC5401B12C9A91B650126D0019" x="25.0206" y="0" fill="#000000" fill-rule="nonzero"/>
                                                            <use xlink:href="#g804569D07B0B7C8F1DF0F2850468A3BF" x="29.733000000000004" y="0" fill="#000000" fill-rule="nonzero"/>
                                                            <use xlink:href="#g59A4207E83E2A86B1EC43B3839B73659" x="33.1364" y="0" fill="#000000" fill-rule="nonzero"/>
                                                            <use xlink:href="#gD394B34944217B5156DF3950690408A8" x="37.8675" y="0" fill="#000000" fill-rule="nonzero"/>
                                                            <use xlink:href="#g804569D07B0B7C8F1DF0F2850468A3BF" x="42.04695" y="0" fill="#000000" fill-rule="nonzero"/>
                                                            <use xlink:href="#gAD5AD175F969CC9B75177DBBCD703C86" x="44.9735" y="0" fill="#000000" fill-rule="nonzero"/>
                                                        </g>
                                                    </g>
                                                </g>
                                            </g>
                                        </g>
                                    </g>
                                </g>
                            </g>
                        </g>
                    </g>
                </g>
            </g>
        </g>
    </g>
    <defs id="glyph">
        <symbol id="g8D5976ED882A29C5D983AFE9B03E56C6" overflow="visible">
            <path d="M 0 0m 1.683 4.114 c 0 -0.3833499 -0.121549964 -0.41139984 -0.49554992 -0.43009996 c -0.04675007 -0.074800014 -0.037400007 -0.21504998 0 -0.27114987 c 0.28049994 0.009350061 0.4020499 0.009350061 0.7292999 0.009350061 c 0.28049994 0 0.4488001 0 0.7293 -0.009350061 c 0.037400007 0.06544995 0.037400007 0.19634986 0 0.27114987 c -0.31789994 0.018700123 -0.47685003 0.04675007 -0.47685003 0.43009996 v 0.22440004 h 0.46749997 l 0.05610013 0.31790018 h -0.5236001 v 1.6830001 c 0 0.08414984 -0.11220002 0.09349966 -0.17764997 0.09349966 c -0.028049946 0 -0.11220002 0 -0.121549964 -0.009349823 c -0.14960003 -0.08414984 -0.25245 -0.1869998 -0.33660007 -0.28985023 c -0.32725 -0.3833499 -0.73864996 -0.86954975 -1.0472 -1.3744497 c -0.037400007 -0.04675007 -0.06545001 -0.09350014 -0.09350002 -0.15894985 c -0.018699974 -0.074800014 -0.06544998 -0.2618003 0.17765 -0.2618003 h 1.1126499 Z m 0 1.8513002 v -1.309 h -0.9163 c 0.06545001 0.16829967 0.55165 0.8508501 0.9163 1.309 Z "/>
        </symbol>
        <symbol id="g10BB68AB2280318B71D1F6C6C25A6C4A" overflow="visible">
            <path d="M 0 0m 6.19905 1.0846 c 0.04675007 -0.75734997 0.009349823 -0.76669997 -0.5984001 -0.79475 c -0.05609989 -0.056099996 -0.05609989 -0.25245 0 -0.30855 c 0.34595013 0.00935 0.7199502 0.0187 1.0004501 0.0187 c 0.28049994 0 0.7105999 -0.00935 1.0191498 -0.0187 c 0.05610037 0.0561 0.05610037 0.25245 0 0.30855 c -0.6357999 0.028050005 -0.66384983 0.06545001 -0.7199497 0.84150004 l -0.28049994 3.9363499 c -0.037400246 0.5049 0.009349823 0.6357999 0.6451497 0.67320013 c 0.05610037 0.05609989 0.05610037 0.25245 0 0.30854988 l -1.2248497 -0.018700123 l -1.9822001 -4.74045 c -0.03739977 -0.09350002 -0.06544995 -0.13090003 -0.084150076 -0.13090003 c -0.018699884 0 -0.04674983 0.04674995 -0.074800014 0.121549964 l -1.9167498 4.7497997 l -1.3557501 0.018700123 c -0.05610001 -0.05609989 -0.05610001 -0.25245 0 -0.30854988 c 0.64515 -0.037400246 0.70125 -0.05609989 0.63579994 -0.75734997 l -0.37399995 -3.8522 c -0.05610001 -0.56100005 -0.16829997 -0.79475003 -0.70124996 -0.84150004 c -0.05610001 -0.056099996 -0.05610001 -0.25245 0 -0.30855 c 0.2805 0.00935 0.5797 0.0187 0.80410004 0.0187 c 0.22439998 0 0.59839994 -0.00935 0.8789 -0.0187 c 0.05610001 0.0561 0.05610001 0.25245 0 0.30855 c -0.6171 0.04675001 -0.66385007 0.3366 -0.6171 0.86020005 l 0.35529995 3.7493496 h 0.018700004 l 1.9354501 -4.8526497 c 0.028049946 -0.06545 0.08414984 -0.14025 0.14024997 -0.14025 c 0.05609989 0 0.0934999 0.065450005 0.1308999 0.14025 l 2.1037502 4.94615 h 0.018699646 Z "/>
        </symbol>
        <symbol id="g8CFD51E567FF054FC7A654F845E8AC44" overflow="visible">
            <path d="M 0 0m 2.7395499 0.4488 c 0.05610013 -0.28985 0.15895009 -0.5423 0.62645006 -0.5423 c 0.35529995 0 0.6919 0.15895 0.8882501 0.34595 c -0.018700123 0.11220002 -0.05609989 0.19635001 -0.15894985 0.25245 c -0.06545019 -0.05609998 -0.22440028 -0.14959997 -0.34595013 -0.14959997 c -0.2711501 0 -0.28050017 0.36465 -0.28050017 0.79475003 v 1.3744498 c 0 1.3277001 -0.7293 1.5801501 -1.41185 1.5801501 c -0.7666999 0 -1.5427499 -0.5049 -1.5427499 -1.0378501 c 0 -0.2243998 0.11220002 -0.33659983 0.32725 -0.33659983 c 0.27115005 0 0.43944997 0.19634986 0.43944997 0.31789994 c 0 0.06544995 -0.009349942 0.1308999 -0.028049946 0.16829991 c -0.009350061 0.028050184 -0.018700004 0.084150076 -0.018700004 0.18700004 c 0 0.28985 0.39269996 0.39269996 0.748 0.39269996 c 0.31790006 0 0.75734985 -0.15894985 0.75734985 -1.2154999 c 0 -0.06544995 -0.028049946 -0.10284996 -0.05609989 -0.11220002 l -0.80410004 -0.1963501 c -0.89759994 -0.2243998 -1.5427499 -0.71994996 -1.5427499 -1.3557498 c 0 -0.7667 0.5236 -1.0098 1.1780999 -1.0098 c 0.32725 0 0.60774994 0.0748 1.01915 0.39270002 l 0.18700004 0.1496 Z m 0 1.72975 v -1.2342 c 0 -0.12155002 -0.05609989 -0.18700004 -0.1308999 -0.24309999 c -0.24309993 -0.19635004 -0.5609999 -0.41140002 -0.8227999 -0.41140002 c -0.4675001 0 -0.6732 0.374 -0.6732 0.66385 c 0 0.42074996 0.19634998 0.8508499 0.88825 1.0285001 Z "/>
        </symbol>
        <symbol id="g804569D07B0B7C8F1DF0F2850468A3BF" overflow="visible">
            <path d="M 0 0m 1.6456 3.3473 c -0.018700004 0.37399983 -0.028049946 0.6171 -0.074800014 0.7105999 c -0.018700004 0.04675007 -0.037400007 0.074800014 -0.1121999 0.074800014 c -0.26180005 -0.10284996 -0.50490004 -0.18700004 -1.15005 -0.27114987 c -0.018700004 -0.05610013 0 -0.20570016 0.018700004 -0.26180005 c 0.5049 -0.04675007 0.60775 -0.09350014 0.60775 -0.6358001 v -1.8232499 c 0 -0.77605 -0.11220002 -0.81345 -0.6919 -0.85085 c -0.056099996 -0.056099996 -0.056099996 -0.25245 0 -0.30855 c 0.32725 0.00935 0.6919 0.0187 1.0659 0.0187 c 0.37399995 0 0.80410004 -0.00935 1.13135 -0.0187 c 0.05609989 0.0561 0.05609989 0.25245 0 0.30855 c -0.6545 0.04675001 -0.7667 0.074800014 -0.7667 0.85085 v 1.2996501 c 0 0.24309993 0.11220002 0.4581499 0.22439992 0.6264498 c 0.10285008 0.14960003 0.31790006 0.45815015 0.43010008 0.45815015 c 0.08414984 0 0.16829991 -0.018700123 0.24309993 -0.12155008 c 0.06544995 -0.0934999 0.17764997 -0.21504998 0.33660007 -0.21504998 c 0.22440004 0 0.43945003 0.2337501 0.43945003 0.46749997 c 0 0.17764997 -0.16830015 0.4488001 -0.5610001 0.4488001 c -0.43945003 0 -0.8227999 -0.41140008 -1.0378499 -0.7760501 c -0.05610001 -0.10284996 -0.10285008 -0.028049946 -0.10285008 0.018700123 Z "/>
        </symbol>
        <symbol id="gE8F9BB29BAAD27D4E01FADCB8184FEA" overflow="visible">
            <path d="M 0 0m 4.1514 3.61845 c 0.17764997 0 0.34594965 0.16830015 0.34594965 0.35529995 c 0 0.19635034 -0.17764997 0.3459499 -0.43009996 0.3459499 c -0.24309969 0 -0.6918998 -0.15894985 -0.9349997 -0.4768498 c -0.11220002 0.074800014 -0.42075014 0.26180005 -0.9724002 0.26180005 c -0.83214986 0 -1.5988499 -0.5610001 -1.5988499 -1.4212 c 0 -0.5049 0.22439998 -0.79475 0.48619998 -1.0472 c -0.2618 -0.22440004 -0.41139996 -0.62645006 -0.41139996 -0.94435 c 0 -0.3366 0.18699998 -0.5984 0.43009996 -0.71995 c -0.5049 -0.2992 -0.76669997 -0.72929996 -0.76669997 -1.13135 c 0 -0.81345 0.76669997 -1.0659001 1.48665 -1.0659001 c 1.26225 0 2.6273499 0.60775006 2.6273499 1.6175501 c 0 0.2992 -0.14024973 0.53295 -0.41139984 0.75734997 c -0.36465 0.2992 -1.01915 0.30855 -1.3651001 0.30855 c -0.16829991 0 -0.40205002 -0.018700004 -0.6264498 -0.04675001 c -0.14025009 -0.009350002 -0.2337501 -0.018700004 -0.28050005 -0.018700004 c -0.27115 0 -0.5984 0.1309 -0.5984 0.53295004 c 0 0.18700004 0.05610001 0.38335 0.16829991 0.5423 c 0.22440004 -0.13090003 0.4862001 -0.19634998 0.8508501 -0.19634998 c 0.8227999 0 1.5801499 0.51425004 1.5801499 1.4305499 c 0 0.43945003 -0.1308999 0.6919 -0.40205002 0.9724002 c 0.06544995 0.0934999 0.25245 0.2243998 0.37400007 0.2243998 c 0.06544995 0 0.1308999 -0.028049946 0.18700004 -0.11219978 c 0.037400007 -0.074800014 0.15895009 -0.16830015 0.26180005 -0.16830015 Z m -2.9172 -3.7119498 c 0.10284996 -0.028049998 0.25245 -0.046749994 0.37399995 -0.046749994 c 0.28985 0 0.5516499 0.028049998 0.6825501 0.028049998 c 0.46749997 0 0.8601999 -0.009350002 1.13135 -0.15895 c 0.36465 -0.20570001 0.4768498 -0.3366 0.4768498 -0.5797 c 0 -0.6732 -0.99109983 -1.0285 -1.8325999 -1.0285 c -0.33659995 0 -1.122 0.27115 -1.122 0.90694994 c 0 0.3179 0.018700004 0.55165005 0.28985 0.8789 Z m 1.74845 2.7021499 c 0 -0.86955 -0.43945003 -1.0472 -0.78540015 -1.0472 c -0.7853999 0 -0.8695499 0.66385007 -0.8695499 1.26225 c 0 0.6545 0.23374999 0.9911001 0.748 0.9911001 c 0.58905005 0 0.90695 -0.43009996 0.90695 -1.20615 Z "/>
        </symbol>
        <symbol id="g4F146376341C648F8E9D53A390A9511A" overflow="visible">
            <path d="M 0 0m 1.69235 1.1407 v 1.86065 c 0 0.46749997 0.037400007 1.0658998 0.037400007 1.0658998 c 0 0.037400246 -0.04675007 0.06545019 -0.12155008 0.06545019 c -0.26179993 -0.10284996 -0.63579994 -0.18700004 -1.28095 -0.27114987 c -0.018700004 -0.05610013 0 -0.20570016 0.018700004 -0.26180005 c 0.51425 -0.04675007 0.60775 -0.10284996 0.60775 -0.6358001 v -1.8232499 c 0 -0.77605 -0.10285002 -0.8041 -0.6732 -0.85085 c -0.056099996 -0.056099996 -0.056099996 -0.25245 0 -0.30855 c 0.30855 0.00935 0.6732 0.0187 1.0472 0.0187 c 0.37399995 0 0.7292999 -0.00935 1.03785 -0.0187 c 0.05609989 0.0561 0.05609989 0.25245 0 0.30855 c -0.57035005 0.037400007 -0.6732 0.074800014 -0.6732 0.85085 Z m -0.85085005 4.45995 c 0 -0.24309969 0.22439998 -0.48619986 0.44880003 -0.48619986 c 0.26179993 0 0.48619998 0.25245 0.48619998 0.4488001 c 0 0.22440004 -0.19634998 0.48619986 -0.44879997 0.48619986 c -0.22440004 0 -0.48620003 -0.22440004 -0.48620003 -0.4488001 Z "/>
        </symbol>
        <symbol id="gBC75E81359F36B16BD01FF13E9627C25" overflow="visible">
            <path d="M 0 0m 1.7204 3.3473 c -0.05610001 -0.06544995 -0.11220002 -0.084150076 -0.11220002 0 c -0.009349942 0.25245 -0.028049946 0.6171 -0.074800014 0.7105999 c -0.018700004 0.04675007 -0.037399888 0.074800014 -0.1121999 0.074800014 c -0.26180005 -0.10284996 -0.50490004 -0.18700004 -1.15005 -0.27114987 c -0.018700004 -0.05610013 0 -0.20570016 0.018700004 -0.26180005 c 0.5049 -0.04675007 0.60775 -0.09350014 0.60775 -0.6358001 v -1.8232499 c 0 -0.76669997 -0.09350002 -0.8041 -0.6545 -0.85085 c -0.056099996 -0.056099996 -0.056099996 -0.25245 0 -0.30855 c 0.2805 0.00935 0.6545 0.0187 1.0285 0.0187 c 0.37399995 0 0.6545 -0.00935 0.93499994 -0.0187 c 0.05610013 0.0561 0.05610013 0.25245 0 0.30855 c -0.4768499 0.04675001 -0.57034993 0.08415002 -0.57034993 0.85085 v 1.5333999 c 0 0.1963501 0.08414996 0.30855012 0.15894997 0.39269996 c 0.35530007 0.34595013 0.77605 0.55165005 1.1407 0.55165005 c 0.18700004 0 0.3833499 -0.121549845 0.49554992 -0.33659983 c 0.09350014 -0.18700004 0.11220002 -0.43945003 0.11220002 -0.7199502 v -1.4211999 c 0 -0.76669997 -0.0934999 -0.8041 -0.5797 -0.85085 c -0.04674983 -0.056099996 -0.04674983 -0.25245 0 -0.30855 c 0.28050017 0.00935 0.5797 0.0187 0.95370007 0.0187 c 0.37399983 0 0.71060014 -0.00935 0.9911001 -0.0187 c 0.04675007 0.0561 0.04675007 0.25245 0 0.30855 c -0.5236001 0.04675001 -0.62645006 0.08415002 -0.62645006 0.85085 v 1.39315 c 0 0.51425004 -0.037400246 0.9630501 -0.25245 1.2529001 c -0.15895009 0.20569992 -0.4488001 0.31789994 -0.7760501 0.31789994 c -0.4581499 0 -0.98175 -0.12155008 -1.5333999 -0.75734997 Z "/>
        </symbol>
        <symbol id="g96A03CDC5401B12C9A91B650126D0019" overflow="visible">
            <path d="M 0 0m 0.38334998 1.91675 c 0 -0.95369995 0.6358 -2.0102499 1.9634999 -2.0102499 c 0.5984001 0 1.05655 0.21505001 1.37445 0.5236 c 0.4207499 0.4114 0.6077502 1.00045 0.6077502 1.5708001 c 0 0.97239995 -0.53295016 2.10375 -1.9635 2.10375 c -0.6171 0 -1.1220001 -0.25245 -1.4679501 -0.6545 c -0.3366 -0.40205002 -0.51425004 -0.94435 -0.51425004 -1.5334 Z m 1.84195 1.8606501 c 0.8040998 0 1.29965 -0.7293 1.29965 -2.0757 c 0 -1.1781 -0.60774994 -1.46795 -1.0472 -1.46795 c -0.97240007 0 -1.2903 1.1781 -1.2903 1.89805 c 0 0.8134501 0.19634998 1.6456001 1.03785 1.6456001 Z "/>
        </symbol>
        <symbol id="g29FCFA910F47C920FBA6BD920C95F658" overflow="visible">
            <path d="M 0 0m 0.40205 4.01115 c -0.1309 0 -0.16829999 -0.11220002 -0.16829999 -0.1869998 v -0.12155008 c 0 -0.04675007 0.009350002 -0.05610013 0.046749994 -0.05610013 h 0.55165 v -2.81435 c 0 -0.66384995 0.28985 -0.92565 0.71994996 -0.92565 c 0.43010008 0 0.89759994 0.20570001 1.26225 0.6171 c -0.018699884 0.09350002 -0.074800014 0.14960003 -0.16829991 0.15895003 c -0.24309993 -0.187 -0.5236001 -0.26180002 -0.7667 -0.26180002 c -0.25245 0 -0.30855 0.28050002 -0.30855 0.8601999 v 2.36555 h 0.97240007 c 0.0934999 0 0.22440004 0.037400007 0.22440004 0.12155008 v 0.18700004 c 0 0.037400007 -0.028050184 0.05609989 -0.074800014 0.05609989 h -1.1220001 v 0.36465025 c 0 0.60774994 0.037400007 0.98175 0.037400007 0.98175 c 0 0.05609989 -0.028049946 0.08414984 -0.074800014 0.08414984 c -0.037399888 0 -0.121549964 -0.037400246 -0.20569992 -0.08414984 c -0.10285008 -0.05610037 -0.19634998 -0.10284996 -0.31790006 -0.13090038 c -0.11219996 -0.03739977 -0.20569998 -0.065449715 -0.20569998 -0.1308999 c 0 -0.11219978 0.028050005 -0.04675007 0.028050005 -1.0846 Z "/>
        </symbol>
        <symbol id="gD394B34944217B5156DF3950690408A8" overflow="visible">
            <path d="M 0 0m 3.6090999 0.86955 c -0.3459499 -0.3553 -0.61709976 -0.5049 -1.1594 -0.5049 c -0.33659983 0 -0.7292999 0.19634998 -1.0191499 0.6732 c -0.18700004 0.30855 -0.29919994 0.73864996 -0.29919994 1.28095 l 2.4871 -0.018699884 c 0.11220002 0 0.17764997 0.05609989 0.17764997 0.15894985 c 0 0.78540015 -0.28049994 1.6269 -1.5801499 1.6269 c -0.81345 0 -1.87 -0.77604985 -1.87 -2.19725 c 0 -0.5236 0.1309 -1.0285001 0.43944997 -1.3838 c 0.3179 -0.37399998 0.75735 -0.5984 1.4305501 -0.5984 c 0.7105999 0 1.2154999 0.32725 1.5895 0.81345004 c -0.028049946 0.09349996 -0.084150076 0.14024997 -0.1963501 0.14959997 Z m -2.4496999 1.7671499 c 0.17764997 1.05655 0.83215 1.1407001 1.05655 1.1407001 c 0.35529995 0 0.7760501 -0.1963501 0.7760501 -0.98175 c 0 -0.084150076 -0.037400007 -0.1308999 -0.1402502 -0.1308999 Z "/>
        </symbol>
        <symbol id="gC9A1D945EF2AE8ADFBD49616F584AB97" overflow="visible">
            <path d="M 0 0m 0.4488 1.2903 c 0.037400007 -0.45815003 0.06544998 -0.89760005 0.06544998 -1.2903 c 0.09350002 0.0187 0.18700004 0.02805 0.23375005 0.02805 c 0.06544995 0 0.121549964 0 0.18699998 -0.0187 c 0.25245005 -0.06545 0.50490004 -0.102850005 0.85085005 -0.102850005 c 0.52359986 0 1.48665 0.25245 1.48665 1.1781 c 0 0.6358 -0.45815015 1.0098 -1.09395 1.2435501 c -0.561 0.21504998 -0.93500006 0.35529995 -0.93500006 0.86955 c 0 0.3833499 0.33660007 0.5983999 0.6545 0.5983999 c 0.20570004 0 0.748 -0.074800014 0.8695501 -0.86955 c 0.05609989 -0.05609989 0.24309993 -0.04674983 0.29919982 0.009350061 c 0.028050184 0.33660007 0.04675007 0.68254995 0.05610013 0.9911001 c -0.28985 0.04674983 -0.7386501 0.17764997 -1.22485 0.17764997 c -0.6919 0 -1.31835 -0.4488001 -1.31835 -1.0472 c 0 -0.68254995 0.30855 -0.97239995 1.0285 -1.2716 c 0.77605 -0.31790006 0.95369995 -0.51425004 0.95369995 -0.91630006 c 0 -0.45815 -0.44879985 -0.6545 -0.79474986 -0.6545 c -0.36465 0 -0.57035005 0.12155001 -0.66385007 0.2244 c -0.20569998 0.21505001 -0.30855 0.62644994 -0.36464995 0.8601999 c -0.05610001 0.05610001 -0.23375005 0.04675007 -0.28985003 -0.009349942 Z "/>
        </symbol>
        <symbol id="gB2EADCBC95F85AD713A4F6A4B918068B" overflow="visible">
            <path d="M 0 0m 3.7213 0.85085 c -0.037400007 0.08415002 -0.11220002 0.12155002 -0.19634986 0.13090003 c -0.31789994 -0.41140002 -0.71994996 -0.6171 -1.122 -0.6171 c -0.6825501 0 -1.2529 0.6919 -1.2529 1.78585 c 0 1.0284998 0.44879997 1.6455998 1.0659 1.6455998 c 0.55165005 0 0.62645006 -0.32725 0.66385007 -0.6545 c 0.028049946 -0.25245 0.15894985 -0.33659983 0.35529995 -0.33659983 c 0.19634986 0 0.4581499 0.121549845 0.4581499 0.41139984 c 0 0.51425004 -0.5329499 0.8882501 -1.4305499 0.8882501 c -0.9256501 0 -1.9167501 -0.83215 -1.9167501 -2.1598501 c 0 -1.20615 0.6732 -2.0383 1.8512999 -2.0383 c 0.5610001 0 1.05655 0.17765 1.52405 0.94435 Z "/>
        </symbol>
        <symbol id="gBA0F195FF5E0296563480126B0D23226" overflow="visible">
            <path d="M 0 0m 1.89805 3.7213 c 0.05610001 0.05610013 0.05610001 0.25245 0 0.30855012 c -0.28049994 -0.009349823 -0.60774994 -0.018700123 -0.94434994 -0.018700123 c -0.3553 0 -0.60775 0.0093503 -0.85085 0.018700123 c -0.056099996 -0.05610013 -0.056099996 -0.25245 0 -0.30855012 c 0.43945 -0.04674983 0.5423 -0.14024997 0.73864996 -0.6264498 l 1.2248499 -3.02005 c 0.05609989 -0.1309 0.1308999 -0.187 0.22440004 -0.187 c 0.084150076 0 0.15894985 0.0561 0.22440004 0.20570001 l 0.94435 2.3001 l 0.9630501 -2.3188 c 0.05609989 -0.1309 0.1308999 -0.187 0.22439957 -0.187 c 0.084150314 0 0.15895033 0.0561 0.21505022 0.19635001 l 1.2248502 2.96395 c 0.14960003 0.3833499 0.30854988 0.64514995 0.7853999 0.6731999 c 0.05609989 0.05610013 0.05609989 0.25245 0 0.30855012 c -0.18700027 -0.009349823 -0.3927002 -0.018700123 -0.67320013 -0.018700123 c -0.28049994 0 -0.67320013 0.0093503 -0.95370007 0.018700123 c -0.05609989 -0.05610013 -0.05609989 -0.25245 0 -0.30855012 c 0.7012501 -0.037400007 0.60774994 -0.30854988 0.47685003 -0.6357999 l -0.7853999 -1.9448 c -0.09350014 -0.23374999 -0.1308999 -0.23374999 -0.20569992 -0.037400007 l -0.80410004 2.0476499 c -0.17764997 0.43945003 -0.15895009 0.5329499 0.33659983 0.57034993 c 0.05609989 0.05610013 0.05609989 0.25245 0 0.30855012 c -0.28049994 -0.009349823 -0.6545 -0.018700123 -0.93499994 -0.018700123 c -0.23374987 0 -0.5423 0.0093503 -0.8227999 0.018700123 c -0.05610013 -0.05610013 -0.05610013 -0.25245 0 -0.30855012 c 0.43945003 -0.037400007 0.55165005 -0.30854988 0.71994996 -0.7292998 l 0.05610013 -0.14960003 l -0.6545 -1.65495 c -0.12155008 -0.30855006 -0.1402502 -0.31790006 -0.26180005 -0.018700004 l -0.748 1.9261 c -0.17764997 0.44879985 -0.16830003 0.5983999 0.28049994 0.6264498 Z "/>
        </symbol>
        <symbol id="gFA33307A4D1BDDD05148C83B0E06AA2" overflow="visible">
            <path d="M 0 0m 1.4586 3.4408 c -0.009350061 0.28049994 -0.028050065 0.5236001 -0.074800014 0.6171 c -0.018700004 0.04675007 -0.037400007 0.074800014 -0.11220002 0.074800014 c -0.26180005 -0.10284996 -0.50490004 -0.18700004 -1.15005 -0.27114987 c -0.018700004 -0.05610013 0 -0.20570016 0.018699996 -0.26180005 c 0.5049 -0.04675007 0.60775006 -0.09350014 0.60775006 -0.6358001 v -3.9924498 c 0 -0.77605 -0.10285002 -0.82280004 -0.6732 -0.85085 c -0.0561 -0.05610001 -0.0561 -0.25245 0 -0.30855012 c 0.32725 0.009350061 0.6732 0.018700123 1.0472 0.018700123 c 0.37400007 0 0.82280004 -0.009350061 1.13135 -0.018700123 c 0.05609989 0.05610013 0.05609989 0.2524501 0 0.30855012 c -0.66385007 0.037400007 -0.7667 0.074800014 -0.7667 0.85085 v 1.0098 c 0 0.121549994 0.037400007 0.11220001 0.13090003 0.0748 c 0.23374999 -0.0935 0.5142499 -0.1496 0.81345 -0.1496 c 0.5236001 0 0.9911001 0.15895 1.37445 0.5236 c 0.4394498 0.4301 0.6918998 1.0098001 0.6918998 1.7671499 c 0 0.9911001 -0.70124984 1.9074001 -1.6549497 1.9074001 c -0.4301002 0 -0.9069501 -0.28049994 -1.2809501 -0.7012501 c -0.05610001 -0.05609989 -0.09350002 -0.05609989 -0.10284996 0.037400007 Z m 0.17764997 -0.3459499 c 0.24309993 0.29919982 0.6731999 0.5797 0.94435 0.5797 c 0.5983999 0 1.1126499 -0.67320013 1.1126499 -1.72975 c 0 -0.7667 -0.27114987 -1.7204 -1.3183498 -1.7204 c -0.16830015 0 -0.49555016 0.046749994 -0.66385007 0.19635 c -0.18700004 0.1683 -0.22440004 0.22440001 -0.22440004 0.561 v 1.7017 c 0 0.1963501 0.037400007 0.28049994 0.14960003 0.41140008 Z "/>
        </symbol>
        <symbol id="g4F769CB82E885CD5A6D63CB163D6C3CF" overflow="visible">
            <path d="M 0 0m 0.9724 0.88825 c -0.28985 0 -0.49555 -0.19634998 -0.49555 -0.45815 c 0 -0.28985 0.24310002 -0.38334998 0.4114 -0.4114 c 0.17764997 -0.0187 0.33659995 -0.0748 0.33659995 -0.28985 c 0 -0.19635001 -0.33659995 -0.62645 -0.8227999 -0.748 c 0 -0.09350002 0.018700004 -0.15894997 0.08415002 -0.22439992 c 0.561 0.10284996 1.1033 0.5516499 1.1033 1.2061499 c 0 0.561 -0.24309993 0.92565 -0.61709994 0.92565 Z "/>
        </symbol>
        <symbol id="g59A4207E83E2A86B1EC43B3839B73659" overflow="visible">
            <path d="M 0 0m 3.1229 0.4675 c 0.04675007 0.037399977 0.1308999 0.05609998 0.14024997 -0.009350002 c 0.028049946 -0.2244 0.10284996 -0.55165 0.10284996 -0.55165 c 0.074800014 -0.028049998 0.12155008 -0.018699996 0.17764997 0 c 0.20570016 0.1683 0.53295016 0.30855 1.1032999 0.374 c 0.05610037 0.05610001 0.05610037 0.19635001 0 0.25245 c -0.59839964 0.04675001 -0.6825497 0.22439998 -0.6825497 0.68255 v 4.23555 c 0 0.60774994 0.037400007 0.98175 0.037400007 0.98175 c 0 0.06545019 -0.037400007 0.09350014 -0.12155008 0.09350014 c -0.2337501 -0.09350014 -0.93499994 -0.22440004 -1.309 -0.25245 c -0.018699884 -0.074800014 0 -0.22440004 0.05610013 -0.28049994 c 0.028049946 0 0.05609989 0 0.08414984 0 c 0.41140008 -0.028049946 0.51425004 -0.028049946 0.51425004 -0.76670027 v -1.1967998 c 0 -0.06544995 -0.018699884 -0.084150076 -0.084150076 -0.084150076 c -0.037400007 0 -0.4207499 0.15895009 -0.7293 0.15895009 c -0.6170999 0 -1.0284998 -0.20570016 -1.4024999 -0.5610001 c -0.40204996 -0.40205002 -0.64514995 -0.9536998 -0.64514995 -1.6456 c 0 -1.1500499 0.5797 -1.99155 1.5895 -1.99155 c 0.36465 0 0.71060014 0.187 1.16875 0.561 Z m 0.10284996 0.6919 c 0 -0.17764997 -0.018699884 -0.25245 -0.14960003 -0.36465 c -0.3459499 -0.29919997 -0.64514995 -0.44879997 -0.87890005 -0.44879997 c -0.50489986 0 -1.0284998 0.55165 -1.0284998 1.7204 c 0 0.6731999 0.1308999 1.0472 0.27115 1.2435501 c 0.28985 0.43945003 0.68254983 0.46749997 0.8695499 0.46749997 c 0.33660007 0 0.57035017 -0.12155008 0.75734997 -0.33660007 c 0.13090014 -0.14960003 0.15895009 -0.21504998 0.15895009 -0.5049 Z "/>
        </symbol>
        <symbol id="g51EE1127E7F690A7664BEF6E88406EEA" overflow="visible">
            <path d="M 0 0m 2.02895 -0.0935 c 0.36465 0 0.80410004 0.187 1.26225 0.561 c 0.04675007 0.037399977 0.13090014 0.05609998 0.14024997 -0.009350002 c 0.028050184 -0.23375 0.1028502 -0.55165 0.1028502 -0.55165 c 0.074799776 -0.028049998 0.121549845 -0.018699996 0.17764997 0 c 0.20569992 0.1683 0.5329497 0.30855 1.1032999 0.374 c 0.05609989 0.05610001 0.05609989 0.19635001 0 0.25245 c -0.5984001 0.04675001 -0.68254995 0.22439998 -0.68254995 0.68255 v 1.7952 c 0 0.28049994 0.037400246 0.9630499 0.037400246 0.9630499 c 0 0.028050184 -0.028050423 0.05610013 -0.074800014 0.05610013 c -0.04675007 -0.009349823 -0.18700027 -0.018700123 -0.32725024 -0.018700123 c -0.29920006 0 -0.6357999 0.0093503 -0.95370007 0.018700123 c -0.05609989 -0.05610013 -0.05609989 -0.25245 0 -0.30855012 c 0.45815015 -0.028049946 0.5797 -0.14024997 0.5797 -0.75734997 v -1.8045499 c 0 -0.17764997 -0.018699884 -0.25245 -0.14959979 -0.36465 c -0.34595013 -0.29919997 -0.7012501 -0.44879997 -0.9350002 -0.44879997 c -0.28049994 0 -0.7479999 0.1309 -0.7479999 0.96305 v 1.7017 c 0 0.28049994 0.037400007 0.9630499 0.037400007 0.9630499 c 0 0.028050184 -0.028050065 0.05610013 -0.074800014 0.05610013 c -0.04674995 -0.009349823 -0.18700004 -0.018700123 -0.32725 -0.018700123 c -0.2992 0 -0.6358 0.0093503 -0.9537 0.018700123 c -0.056099996 -0.05610013 -0.056099996 -0.25245 0 -0.30855012 c 0.44880003 -0.037400007 0.5797 -0.14024997 0.5797 -0.7479999 v -1.7952 c 0 -0.64515 0.2805 -1.2716 1.20615 -1.2716 Z "/>
        </symbol>
        <symbol id="g1F7E59A3E3BE48B6BB978A7EB36CDA9E" overflow="visible">
            <path d="M 0 0m 2.1234727 4.5636034 l -0.32286727 -1.2883642 h 0.76060045 l 0.32597184 1.2883642 h 0.49671865 l -0.3259716 -1.2883642 h 0.7574961 v -0.47809196 h -0.8723624 l -0.26077724 -1.0369003 h 0.77612305 v -0.47498727 h -0.89719844 l -0.32286716 -1.2852597 h -0.49671865 l 0.3259716 1.2852597 h -0.763705 l -0.32597166 -1.2852597 h -0.49361423 l 0.32286718 1.2852597 h -0.800959 v 0.47498727 h 0.9220342 l 0.26077735 1.0369003 h -0.82579494 v 0.47809196 h 0.9406611 l 0.32286716 1.2883642 h 0.49671888 Z m 0.32286716 -1.7664561 h -0.7606007 l -0.26077724 -1.0369003 h 0.7637049 l 0.25767303 1.0369003 Z "/>
        </symbol>
        <symbol id="gF3951130C8972E46AF799D9944F0A664" overflow="visible">
            <path d="M 0 0m 1.1641846 0.43773338 v -1.760247 h -0.57433105 v 4.799545 h 0.57433105 v -0.44394255 q 0.14280665 0.25767303 0.38030028 0.39271832 q 0.23749363 0.13504553 0.5479429 0.13504553 q 0.63021183 0 0.98878074 -0.4874053 q 0.35856867 -0.4874053 0.35856867 -1.3504541 q 0 -0.8475264 -0.360121 -1.3302748 q -0.360121 -0.4827485 -0.9872284 -0.4827485 q -0.31665826 0 -0.5541519 0.13504541 q -0.23749363 0.13504541 -0.37409127 0.39271826 Z m 1.6764257 1.2976776 q 0 0.66436136 -0.20955324 1.002751 q -0.20955324 0.33838964 -0.6224506 0.33838964 q -0.41600204 0 -0.63021195 -0.33994198 q -0.21420991 -0.33994174 -0.21420991 -1.0011986 q 0 -0.65815234 0.21420991 -0.9996464 q 0.21420991 -0.3414941 0.63021195 -0.3414941 q 0.41289735 0 0.6224506 0.3383896 q 0.20955324 0.3383897 0.20955324 1.0027509 Z "/>
        </symbol>
        <symbol id="g31A29DE513985C5174636F1AC7ECB92" overflow="visible">
            <path d="M 0 0m 2.1793535 1.7478291 h -0.18937409 q -0.4998232 0 -0.7528393 -0.17540383 q -0.25301605 -0.17540383 -0.25301605 -0.52310693 q 0 -0.3135537 0.18937403 -0.48740524 q 0.18937397 -0.17385155 0.52465916 -0.17385155 q 0.4718827 0 0.7419735 0.3275239 q 0.27009082 0.3275239 0.27319527 0.9049595 v 0.12728417 h -0.5339725 Z m 1.1083035 0.23594141 v -1.9837705 h -0.57433105 v 0.5153457 q -0.18316483 -0.3104492 -0.4610169 -0.4579126 q -0.27785206 -0.14746337 -0.67522705 -0.14746337 q -0.5308682 0 -0.8475264 0.2995835 q -0.31665823 0.29958346 -0.31665823 0.8025112 q 0 0.58053994 0.38961378 0.8816757 q 0.38961375 0.30113578 1.1440053 0.30113578 h 0.76680946 v 0.09003019 q -0.0031044483 0.41600204 -0.21110535 0.60382366 q -0.2080009 0.18782187 -0.66436136 0.18782187 q -0.2918222 0 -0.5898534 -0.0838213 q -0.29803127 -0.0838213 -0.58054006 -0.245255 v 0.5712266 q 0.3166582 0.12107515 0.6069282 0.18161297 q 0.29026997 0.060537577 0.56346524 0.060537577 q 0.4315244 0 0.73731697 -0.12728429 q 0.30579233 -0.12728405 0.49516654 -0.38185263 q 0.117970705 -0.15522456 0.16764235 -0.38340473 q 0.04967189 -0.22818017 0.04967189 -0.6845404 Z "/>
        </symbol>
        <symbol id="g1F2EB848F5A57D4461F31EC7E592F90D" overflow="visible">
            <path d="M 0 0m 2.6636543 1.766456 q 0 0.64262974 -0.20955324 0.9763628 q -0.20955324 0.33373284 -0.6100328 0.33373284 q -0.41910636 0 -0.6395254 -0.33373284 q -0.22041887 -0.33373308 -0.22041887 -0.9763628 q 0 -0.64262986 0.22197121 -0.9794673 q 0.22197115 -0.33683738 0.6441821 -0.33683738 q 0.39427054 0 0.6038238 0.33838966 q 0.20955324 0.33838958 0.20955324 0.977915 Z m 0.57122636 -1.5429325 q 0 -0.782332 -0.3694346 -1.185916 q -0.36943436 -0.403584 -1.0865722 -0.403584 q -0.23594141 0 -0.4936142 0.04346299 q -0.2576728 0.043462873 -0.5153457 0.12728417 v 0.5650175 q 0.30424023 -0.14280665 0.55259955 -0.21110547 q 0.24835944 -0.06829882 0.45636034 -0.06829882 q 0.46256948 0 0.6736748 0.25146383 q 0.21110559 0.2514639 0.21110559 0.7978545 v 0.024835944 v 0.38806152 q -0.13659787 -0.29182228 -0.37253928 -0.4346289 q -0.23594117 -0.14280663 -0.5743309 -0.14280663 q -0.60848045 0 -0.97170603 0.48740527 q -0.36322555 0.48740527 -0.36322555 1.3038867 q 0 0.8195859 0.36322555 1.3069912 q 0.36322558 0.4874053 0.97170603 0.4874053 q 0.33528507 0 0.568122 -0.13349319 q 0.23283696 -0.13349319 0.37874818 -0.4128976 v 0.45015144 h 0.57122636 v -3.2410898 Z "/>
        </symbol>
        <symbol id="gFCE30EC6E8DFC40C19CEE443D54719D4" overflow="visible">
            <path d="M 0 0m 3.4521952 1.8813223 v -0.2794044 h -2.47428 v -0.018626928 q 0 -0.568122 0.29647905 -0.8785712 q 0.296479 -0.3104492 0.8366606 -0.3104492 q 0.27319527 0 0.5712266 0.086925775 q 0.2980311 0.086925745 0.6364207 0.2638818 v -0.568122 q -0.3259716 -0.13349316 -0.6286595 -0.20023973 q -0.30268812 -0.06674658 -0.585197 -0.06674658 q -0.81027234 0 -1.2666327 0.48585302 q -0.4563603 0.48585305 -0.4563603 1.3395883 q 0 0.83200395 0.44704685 1.3287226 q 0.44704688 0.49671888 1.1921251 0.49671888 q 0.66436124 0 1.047766 -0.45015144 q 0.38340473 -0.45015144 0.38340473 -1.2293788 Z m -0.5712266 0.16764247 q -0.012417793 0.5029278 -0.23749352 0.76525736 q -0.22507572 0.26232958 -0.64728665 0.26232958 q -0.41289747 0 -0.6798837 -0.27319527 q -0.26698637 -0.27319527 -0.31665826 -0.7574961 l 1.8813221 0.0031044483 Z "/>
        </symbol>
        <symbol id="g883E66DA58D1D2D129C9971DB763AC93" overflow="visible">
            <path d="M 0 0m 2.8499238 1.735411 q 0 0.66436136 -0.21110559 1.002751 q -0.21110535 0.33838964 -0.62400293 0.33838964 q -0.41600192 0 -0.63021183 -0.33994198 q -0.21421003 -0.33994174 -0.21421003 -1.0011986 q 0 -0.65815234 0.21421003 -0.9996464 q 0.21420991 -0.3414941 0.63021183 -0.3414941 q 0.4128976 0 0.62400293 0.3383896 q 0.21110559 0.3383897 0.21110559 1.0027509 Z m -1.6795304 1.2976776 q 0.13659775 0.25456834 0.37719584 0.3911662 q 0.2405982 0.13659763 0.5572562 0.13659763 q 0.6271076 0 0.98722863 -0.4827485 q 0.360121 -0.48274875 0.360121 -1.3302749 q 0 -0.85994434 -0.36167336 -1.3489019 q -0.36167336 -0.48895752 -0.9918852 -0.48895752 q -0.31044912 0 -0.5479429 0.13504541 q -0.23749363 0.13504541 -0.38030028 0.39271826 v -0.43773338 h -0.5712265 v 4.83059 h 0.5712265 v -1.7975011 Z "/>
        </symbol>
        <symbol id="g3C085F341DE6A23F9852B0532C3F8C31" overflow="visible">
            <path d="M 0 0m 3.5856884 2.7598934 q -0.18316507 0.14280677 -0.37253904 0.20800114 q -0.18937397 0.06519413 -0.41600204 0.06519413 q -0.5339725 0 -0.81648135 -0.33528495 q -0.28250873 -0.3352852 -0.28250873 -0.9686016 v -1.7292022 h -0.57433105 v 3.4770312 h 0.57433105 v -0.67988396 q 0.14280665 0.3694346 0.43928564 0.5665698 q 0.296479 0.19713545 0.70316744 0.19713545 q 0.21110535 0 0.39427042 -0.052776575 q 0.18316507 -0.052776337 0.35080767 -0.1645379 v -0.5836446 Z "/>
        </symbol>
        <symbol id="g8FB2FE993C6D052215D46B3FAE5F2FA1" overflow="visible">
            <path d="M 0 0m 0.7326601 4.83059 h 0.58985347 v -2.7971475 l 1.4994698 1.443589 h 0.6954062 l -1.369081 -1.3100958 l 1.583291 -2.1669354 h -0.6985109 l -1.2852596 1.7943964 l -0.4253155 -0.40047944 v -1.393917 h -0.58985347 v 4.83059 Z "/>
        </symbol>
        <symbol id="g89D0D5708DF870D944F9C8E188E2207" overflow="visible">
            <path d="M 0 0m 2.7474754 4.824381 q -0.41289735 -0.70782423 -0.61624146 -1.4109919 q -0.20334435 -0.70316744 -0.20334435 -1.4172006 q 0 -0.7109287 0.20334435 -1.4156485 q 0.2033441 -0.70471966 0.61624146 -1.4187529 h -0.49671865 q -0.46877825 0.7388691 -0.69851065 1.4389321 q -0.22973251 0.700063 -0.22973251 1.3954692 q 0 0.69230175 0.22973251 1.3939168 q 0.2297324 0.70161533 0.69851065 1.4342756 h 0.49671865 Z "/>
        </symbol>
        <symbol id="gE98CA14DC19F2C9FD2D725DC424C5F85" overflow="visible">
            <path d="M 0 0m 1.0803633 4.824381 h 0.49671876 q 0.46877825 -0.7326603 0.69851077 -1.4342756 q 0.22973228 -0.7016151 0.22973228 -1.3939168 q 0 -0.69851077 -0.22973228 -1.400126 q -0.22973251 -0.7016152 -0.69851077 -1.4342754 h -0.49671876 q 0.41289747 0.72024214 0.6162417 1.4249618 q 0.20334423 0.7047197 0.20334423 1.4094393 q 0 0.70782423 -0.20334423 1.412544 q -0.20334423 0.70471954 -0.6162417 1.4156485 Z "/>
        </symbol>
        <symbol id="g69DAF57666B4EFE34CDAB7CF8341297D" overflow="visible">
            <path d="M 0 0m 1.5895 3.3473 c -0.009349942 0.28049994 -0.028049946 0.6171 -0.074800014 0.7105999 c -0.018699884 0.04675007 -0.037399888 0.074800014 -0.1121999 0.074800014 c -0.26180005 -0.10284996 -0.50490004 -0.18700004 -1.15005 -0.27114987 c -0.018699989 -0.05610013 0 -0.20570016 0.018700004 -0.26180005 c 0.5049 -0.04675007 0.60775 -0.09350014 0.60775 -0.6358001 v -1.8232499 c 0 -0.76669997 -0.12155002 -0.81345 -0.6358 -0.85085 c -0.056099996 -0.056099996 -0.056099996 -0.25245 0 -0.30855 c 0.2805 0.00935 0.6358 0.0187 1.0098 0.0187 c 0.37399995 0 0.66384995 -0.00935 0.9443499 -0.0187 c 0.05610013 0.0561 0.05610013 0.25245 0 0.30855 c -0.4768499 0.04675001 -0.5796999 0.08415002 -0.5796999 0.85085 v 1.5333999 c 0 0.1963501 0.08414996 0.30855012 0.15894997 0.39269996 c 0.37400007 0.36465 0.71994996 0.55165005 1.0098 0.55165005 c 0.35529995 0 0.6171 -0.22440004 0.6171 -0.85084987 v -1.6269001 c 0 -0.76669997 -0.074800014 -0.81345 -0.5797 -0.85085 c -0.04675007 -0.056099996 -0.04675007 -0.25245 0 -0.30855 c 0.2337501 0.00935 0.5797 0.0187 0.95370007 0.0187 c 0.37400007 0 0.68254995 -0.00935 0.9162998 -0.0187 c 0.04675007 0.0561 0.04675007 0.25245 0 0.30855 c -0.46749973 0.037400007 -0.55165005 0.08415002 -0.55165005 0.85085 v 1.4866501 c 0 0.1308999 0 0.2617998 -0.009349823 0.37399983 c 0.4488001 0.49555016 0.8695502 0.6171 1.2342 0.6171 c 0.35529995 0 0.5609999 -0.20569992 0.5609999 -0.83215 v -1.6456 c 0 -0.76669997 -0.09349966 -0.81345 -0.5797 -0.85085 c -0.04675007 -0.056099996 -0.04675007 -0.25245 0 -0.30855 c 0.23375034 0.00935 0.5797 0.0187 0.95370007 0.0187 c 0.37400007 0 0.7012501 -0.00935 0.9630499 -0.0187 c 0.04675007 0.0561 0.04675007 0.25245 0 0.30855 c -0.5142498 0.037400007 -0.59839964 0.08415002 -0.59839964 0.85085 v 1.4773 c 0 0.83215 -0.1402502 1.48665 -0.96305037 1.48665 c -0.47685003 0 -1.05655 -0.17764997 -1.5427499 -0.6919 c -0.028049946 -0.028049946 -0.08414984 -0.074800014 -0.10284996 0.009350061 c -0.084150076 0.3833499 -0.4488001 0.68254995 -0.93499994 0.68254995 c -0.5423 0 -1.0285001 -0.31789994 -1.4212 -0.75734997 c -0.04674995 -0.04675007 -0.10284996 -0.11220002 -0.11220002 0 Z "/>
        </symbol>
        <symbol id="g69CCD6C5BF9ECE183D8F9F3421F27DFB" overflow="visible">
            <path d="M 0 0m 0.88825 1.1407 c 0 -0.77605 -0.10285002 -0.8228 -0.6732 -0.85085 c -0.056099996 -0.056099996 -0.056099996 -0.25245 0 -0.30855 c 0.32725 0.00935 0.6732 0.0187 1.0472 0.0187 c 0.37400007 0 0.7293 -0.00935 1.0378501 -0.0187 c 0.05609989 0.0561 0.05609989 0.25245 0 0.30855 c -0.57035005 0.028050005 -0.67320013 0.074800014 -0.67320013 0.85085 v 4.31035 c 0 0.60774994 0.037400007 0.98175 0.037400007 0.98175 c 0 0.06545019 -0.037400007 0.09350014 -0.121549964 0.09350014 c -0.23374999 -0.09350014 -0.935 -0.22440004 -1.309 -0.25245 c -0.018700004 -0.074800014 0 -0.22440004 0.056099996 -0.28049994 c 0.5423 -0.037400246 0.5984 -0.06545019 0.5984 -0.76670027 Z "/>
        </symbol>
        <symbol id="gA577C6351A2823D1A7889B5D42B1A25B" overflow="visible">
            <path d="M 0 0m 1.9074 -1.496 c 0.14959991 0.26180005 0.27115 0.52360004 0.38335 0.80410004 c 0.7479999 1.80455 1.16875 2.7676 1.6549499 3.8148 c 0.18700004 0.39269996 0.31789994 0.5423 0.7573502 0.5983999 c 0.05609989 0.05610013 0.05609989 0.25245 0 0.30855012 c -0.18700027 -0.009349823 -0.40205002 -0.018700123 -0.6638503 -0.018700123 c -0.28049994 0 -0.57034993 0.0093503 -0.85084987 0.018700123 c -0.05609989 -0.05610013 -0.05609989 -0.25245 0 -0.30855012 c 0.29920006 -0.028049946 0.5984001 -0.08414984 0.4488001 -0.4207499 l -0.9256501 -2.14115 c -0.06544995 -0.14960003 -0.14960003 -0.17764997 -0.22440004 0.009350061 l -0.83214986 1.9447999 c -0.16830003 0.39269996 -0.21504998 0.57034993 0.30855 0.60774994 c 0.05609989 0.05610013 0.05609989 0.25245 0 0.30855012 c -0.34595 -0.009349823 -0.7199501 -0.018700123 -1.05655 -0.018700123 c -0.3179 0 -0.57035 0.0093503 -0.75734997 0.018700123 c -0.056099996 -0.05610013 -0.056099996 -0.25245 0 -0.30855012 c 0.37399998 -0.04674983 0.49555 -0.1308999 0.73864996 -0.70124984 l 1.05655 -2.4590502 c 0.08414996 -0.18699998 0.22439992 -0.6171 0.13090003 -0.8789 c -0.11220002 -0.30855 -0.22440004 -0.57035 -0.36465 -0.8602 c -0.10285008 -0.18700004 -0.23374999 -0.27115 -0.4675001 -0.27115 c -0.1308999 0 -0.16829991 0.028049946 -0.27114993 0.028049946 c -0.27115 0 -0.41140002 -0.28049994 -0.41140002 -0.4020499 c 0 -0.19634998 0.18700004 -0.34595 0.43945003 -0.34595 c 0.19634998 0 0.57034993 0.074800014 0.90695 0.6731999 Z "/>
        </symbol>
        <symbol id="gAD5AD175F969CC9B75177DBBCD703C86" overflow="visible">
            <path d="M 0 0m 0.53295 0.40205 c 0 -0.27115 0.22439998 -0.49554998 0.49554998 -0.49554998 c 0.27115 0 0.49555004 0.2244 0.49555004 0.49554998 c 0 0.27115002 -0.22440004 0.49555 -0.49555004 0.49555 c -0.27115 0 -0.49554998 -0.22439998 -0.49554998 -0.49555 Z "/>
        </symbol>
        <symbol id="gFA921D05D86A73CF9CCE504440EB0B98" overflow="visible">
            <path d="M 0 0m 1.7391 5.8344 c 0 -0.38335037 -0.25245 -0.62645006 -0.66384995 -0.68255043 c -0.028050065 -0.08414984 -0.028050065 -0.1869998 0.018700004 -0.25245 c 0.074800014 0.0093503 0.121549964 0.018700123 0.18699992 0.018700123 c 0.22440004 0 0.7012501 -0.03739977 0.7012501 -0.5703497 c 0 -0.5984001 -0.41140008 -0.7199502 -0.6825501 -0.7199502 c -0.29919994 0 -0.37399995 0.06544995 -0.43009996 0.16829991 c -0.05610001 0.11220002 -0.14959997 0.15895009 -0.2805 0.15895009 c -0.11219999 0 -0.23374999 -0.084150076 -0.23374999 -0.20569992 c 0 -0.29920006 0.66385 -0.40205002 0.90694994 -0.40205002 c 0.74800014 0 1.29965 0.43009996 1.29965 1.0752501 c 0 0.54229975 -0.43945003 0.79474974 -0.7479999 0.8227997 c 0.2711501 0.14960003 0.47685003 0.36465025 0.47685003 0.6357999 c 0 0.34595013 -0.30855 0.55165005 -0.79475 0.55165005 c -0.81345004 0 -1.0659001 -0.4487996 -1.0659001 -0.60774994 c 0 -0.028049946 0.037400007 -0.16829967 0.21505001 -0.16829967 c 0.21504998 0 0.20569998 0.16829967 0.25245 0.27114964 c 0.06545001 0.14960003 0.32724994 0.22440004 0.48620003 0.22440004 c 0.14959991 0 0.35529995 -0.074800014 0.35529995 -0.3178997 Z "/>
        </symbol>
        <symbol id="g5F78150F331D865695D504ECCEC11027" overflow="visible">
            <path d="M 0 0m 1.44925 0.73865 l 0.51425004 1.3557498 c 0.04675007 0.12155008 0.10284996 0.15895009 0.32725 0.15895009 h 1.9728498 l 0.5423002 -1.58015 c 0.11219978 -0.3179 -0.24310017 -0.3553 -0.69190025 -0.38335 c -0.05609989 -0.056099996 -0.05609989 -0.25245 0 -0.30855 c 0.34595013 0.00935 0.8601999 0.0187 1.2248502 0.0187 c 0.3833499 0 0.73864985 -0.00935 1.0658998 -0.0187 c 0.05609989 0.0561 0.05609989 0.25245 0 0.30855 c -0.36464977 0.037400007 -0.68254995 0.06545001 -0.8414998 0.51425 l -1.9261 5.3482 c -0.14024997 -0.08414984 -0.39269996 -0.1869998 -0.51425004 -0.1869998 l -2.1224499 -5.0116 c -0.24310005 -0.5797 -0.5236 -0.6358 -0.935 -0.66385 c -0.056099996 -0.056099996 -0.056099996 -0.25245 0 -0.30855 c 0.2431 0.00935 0.55165 0.0187 0.83215 0.0187 c 0.38334996 0 0.85085005 -0.00935 1.1968 -0.0187 c 0.05610013 0.0561 0.05610013 0.25245 0 0.30855 c -0.35529995 0.028050005 -0.79475 0.06545001 -0.64514995 0.44880003 Z m 1.0098 1.9073999 c -0.20569992 0 -0.27114987 0.028049946 -0.23374987 0.12155008 l 0.9536998 2.42165 h 0.05610013 l 0.8788998 -2.5432 Z "/>
        </symbol>
        <symbol id="gFED21A07E9D402157189DBC16E39E7A7" overflow="visible">
            <path d="M 0 0m 1.89805 4.3197 c 0 -0.3833499 -0.15894997 -0.7105999 -0.5797 -0.7105999 c -0.20569992 0 -0.30855 0.06545019 -0.39269996 0.14960003 c -0.074800014 0.074800014 -0.14960003 0.14024997 -0.27115 0.14024997 c -0.09350002 0 -0.20570001 -0.074799776 -0.20570001 -0.19634986 c 0 -0.22440004 0.561 -0.34595013 0.87890005 -0.34595013 c 0.64514995 0 1.1033 0.49555016 1.1033 1.05655 c 0 0.5049 -0.33660007 0.99109983 -1.0659 0.99109983 c -0.13090003 0 -0.36465 -0.04674959 -0.44880003 -0.10284996 l 0.11219996 0.75734997 h 1.2622501 v 0.0093503 l 0.04675007 0.3178997 h -1.5240501 l -0.20569998 -1.33705 l 0.05610001 -0.028049946 c 0.13089997 0.06545019 0.32725 0.1308999 0.53295 0.1308999 c 0.6732 0 0.70124996 -0.5516496 0.70124996 -0.83215 Z "/>
        </symbol>
        <symbol id="gB24794641EE6D7122DF693624205515A" overflow="visible">
            <path d="M 0 0m 1.56145 2.6741 c 0 0.1963501 0.08414996 0.30855012 0.15894997 0.39269996 c 0.35530007 0.34595013 0.8321501 0.55165005 1.1968001 0.55165005 c 0.1869998 0 0.3833499 -0.121549845 0.49554992 -0.33659983 c 0.0934999 -0.18700004 0.11220002 -0.43945003 0.11220002 -0.7199502 v -1.4211999 c 0 -0.76669997 -0.09350014 -0.8041 -0.5797 -0.85085 c -0.04675007 -0.056099996 -0.04675007 -0.25245 0 -0.30855 c 0.26180005 0.00935 0.5797 0.0187 0.9536998 0.0187 c 0.3740003 0 0.6825502 -0.00935 0.9911001 -0.0187 c 0.04675007 0.0561 0.04675007 0.25245 0 0.30855 c -0.5236001 0.04675001 -0.62645006 0.08415002 -0.62645006 0.85085 v 1.39315 c 0 0.51425004 -0.03739977 0.97239995 -0.25245 1.2529001 c -0.15894985 0.20569992 -0.44879985 0.31789994 -0.77604985 0.31789994 c -0.45815015 0 -1.01915 -0.12155008 -1.5895001 -0.75734997 c 0 -0.009350061 -0.009349942 -0.009350061 -0.018700004 -0.018700123 c -0.028049946 -0.037400007 -0.074800014 -0.0934999 -0.074800014 0.018700123 l 0.009350061 2.1037498 c 0 0.60774994 0.037400007 0.98175 0.037400007 0.98175 c 0 0.06545019 -0.037400007 0.09350014 -0.121549964 0.09350014 c -0.2337501 -0.09350014 -0.93500006 -0.22440004 -1.309 -0.25245 c -0.018700004 -0.074800014 0 -0.22440004 0.056099996 -0.28049994 c 0.02804999 0 0.056099996 0 0.08415 0 c 0.41140002 -0.028049946 0.51425 -0.028049946 0.51425 -0.76670027 v -4.08595 c 0 -0.77605 -0.11219996 -0.81345 -0.6545 -0.85085 c -0.056100003 -0.056099996 -0.056100003 -0.25245 0 -0.30855 c 0.30855 0.00935 0.6545 0.0187 1.0285 0.0187 c 0.35529995 0 0.66384995 -0.00935 0.9256499 -0.0187 c 0.05610013 0.0561 0.05610013 0.25245 0 0.30855 c -0.4768499 0.037400007 -0.5609999 0.074800014 -0.5609999 0.85085 Z "/>
        </symbol>
        <symbol id="gA52BB5B435493A69BF39D5AB2C43B38E" overflow="visible">
            <path d="M 0 0m 0.8041 1.1407 c 0 -0.77605 -0.10284996 -0.81345 -0.62644994 -0.85085 c -0.056100003 -0.056099996 -0.056100003 -0.25245 0 -0.30855 c 0.30855 0.00935 0.62644994 0.0187 1.00045 0.0187 c 0.32725 0 0.6358 -0.00935 0.85085 -0.0187 c 0.05610013 0.0561 0.05610013 0.25245 0 0.30855 c -0.38335 0.037400007 -0.48619998 0.074800014 -0.48619998 0.85085 v 0.81345 c 0.17764997 -0.009349942 0.30855 -0.018700004 0.40205002 -0.04674995 c 0.10285008 -0.074800014 0.18699992 -0.15894997 0.29919994 -0.30855 l 0.68254995 -0.9163 c 0.2711501 -0.36465 0.38335013 -0.5423 0.39269996 -0.6545 c 0 -0.02805 0.009350061 -0.04675 0.037400007 -0.04675 c 0.18700004 0.00935 0.3927002 0.0187 0.5797 0.0187 c 0.28985023 0 0.5797 -0.00935 0.76670027 -0.0187 c 0.05609989 0.0561 0.05609989 0.25245 0 0.30855 c -0.31790018 0.037400007 -0.55165005 0.074800014 -0.8041003 0.39270002 l -1.2341998 1.5521 c -0.037400007 0.04675007 -0.06545019 0.084150076 -0.06545019 0.13090014 c 0 0.037400007 0 0.05609989 0.037400007 0.0934999 l 0.82280016 0.8508501 c 0.28049994 0.29919982 0.6077497 0.37399983 0.9817498 0.41139984 c 0.05609989 0.05610013 0.05609989 0.25245 0 0.30855012 c -0.21504974 -0.009349823 -0.4768498 -0.018700123 -0.81344986 -0.018700123 c -0.35529995 0 -0.7012501 0.0093503 -0.91630006 0.018700123 c -0.05609989 -0.05610013 -0.05609989 -0.25245 0 -0.30855012 c 0.5236001 -0.037400007 0.29920006 -0.36465 0.21504998 -0.4768498 c -0.21504998 -0.2711501 -0.5049 -0.58905005 -0.7479999 -0.7667 c -0.20570004 -0.14960003 -0.45815003 -0.26180005 -0.6358 -0.28985 v 3.2631497 c 0 0.60774994 0.037400007 0.98175 0.037400007 0.98175 c 0 0.06545019 -0.037400007 0.09350014 -0.121549964 0.09350014 c -0.2337501 -0.09350014 -0.93500006 -0.22440004 -1.309 -0.25245 c -0.018700004 -0.074800014 0 -0.22440004 0.056099996 -0.28049994 c 0.028050005 0 0.056099996 0 0.08415 0 c 0.41140002 -0.028049946 0.51425 -0.028049946 0.51425 -0.76670027 Z "/>
        </symbol>
        <symbol id="gBA094B6F4FCC207FB090B0275BC8E46F" overflow="visible">
            <path d="M 0 0m 1.56145 3.6838999 c -0.05610001 -0.05609989 -0.09350002 -0.037400007 -0.09350002 0.04675007 v 1.7203999 c 0 0.60774994 0.037400007 0.98175 0.037400007 0.98175 c 0 0.06545019 -0.037400007 0.09350014 -0.121549964 0.09350014 c -0.23374999 -0.09350014 -0.93500006 -0.22440004 -1.309 -0.25245 c -0.0187 -0.074800014 0 -0.22440004 0.056099996 -0.28049994 c 0.028050005 0 0.05610001 0 0.08415 0 c 0.41140002 -0.028049946 0.51425004 -0.028049946 0.51425004 -0.76670027 v -4.5628 c 0 -0.36465 -0.009350002 -0.53295004 -0.037400007 -0.66385 c 0.04675001 -0.0748 0.09349996 -0.1122 0.20569998 -0.1122 c 0.05610001 0.0561 0.14959997 0.14025 0.22439998 0.2244 c 0.09350002 0.1122 0.14960003 0.1122 0.25245 0.028049998 c 0.21504998 -0.17765 0.49555004 -0.23375 0.8227999 -0.23375 c 0.95370007 0 2.06635 0.86955 2.06635 2.3562 c 0 1.1406999 -0.8414998 1.8419499 -1.6549499 1.8419499 c -0.40205002 0 -0.75734997 -0.15895009 -1.0472 -0.42075014 Z m 0.06544995 -0.28985 c 0.24310005 0.21504998 0.5236001 0.29920006 0.79475 0.29920006 c 0.57035017 0 1.0378501 -0.6919 1.0378501 -1.59885 c 0 -1.0659 -0.4301002 -1.8699999 -1.3183501 -1.8699999 c -0.28985 0 -0.48619998 0.2057 -0.6732 0.43945003 v 2.3374999 c 0 0.1963501 0.037400007 0.28985 0.15894997 0.39269996 Z "/>
        </symbol>
    </defs>
</svg>
